<svg width="169" height="126" xmlns="http://www.w3.org/2000/svg" xmlns:xlink="http://www.w3.org/1999/xlink">
 <style type="text/css">.st0{fill:#100E0F;}
	.st1{clip-path:url(#SVGID_2_);}
	.st2{clip-path:url(#SVGID_4_);fill:#010101;}</style>
 <g>
  <title>background</title>
  <rect fill="none" id="canvas_background" height="128" width="171" y="-1" x="-1"/>
 </g>
 <g>
  <title>Layer 1</title>
  <g id="svg_1">
   <g id="svg_2">
    <path id="svg_3" d="m44.550003,88.549998l-10.9,0c-0.3,0 -0.5,0.2 -0.5,0.5l0,5.3c0,0.3 0.2,0.5 0.5,0.5l4.3,0l0,6.6c0,0 -1,0.3 -3.6,0.3c-3.1,0 -7.5,-1.1 -7.5,-10.7c0,-9.6 4.5,-10.9 8.8,-10.9c3.7,0 5.3,0.6 6.3,1c0.3,0.1 0.6,-0.2 0.6,-0.5l1.2,-5.2c0,-0.1 0,-0.3 -0.2,-0.4c-0.4,-0.3 -2.9,-1.7 -9.2,-1.7c-7.3,0 -14.8,3.1 -14.8,18c0,14.9 8.6,17.1 15.8,17.1c6,0 9.6,-2.6 9.6,-2.6c0.1,-0.1 0.2,-0.3 0.2,-0.4l0,-16.4c-0.1,-0.3 -0.3,-0.5 -0.6,-0.5z" class="st0"/>
    <path id="svg_4" d="m100.850003,75.249998c0,-0.3 -0.2,-0.5 -0.5,-0.5l-6.2,0c-0.3,0 -0.5,0.2 -0.5,0.5c0,0 0,11.9 0,11.9l-9.6,0l0,-11.9c0,-0.3 -0.2,-0.5 -0.5,-0.5l-6.2,0c-0.3,0 -0.5,0.2 -0.5,0.5l0,32.2c0,0.3 0.2,0.5 0.5,0.5l6.2,0c0.3,0 0.5,-0.2 0.5,-0.5l0,-13.8l9.6,0c0,0 0,13.8 0,13.8c0,0.3 0.2,0.5 0.5,0.5l6.2,0c0.3,0 0.5,-0.2 0.5,-0.5l0,-32.2z" class="st0"/>
    <g id="svg_5">
     <g id="svg_6">
      <path id="svg_7" d="m56.150003,79.549998c0,-2.2 -1.8,-4 -4,-4c-2.2,0 -4,1.8 -4,4c0,2.2 1.8,4 4,4c2.2,0 4,-1.8 4,-4z" class="st0"/>
      <path id="svg_8" d="m55.650003,100.649998c0,-0.8 0,-14.9 0,-14.9c0,-0.3 -0.2,-0.5 -0.5,-0.5l-6.1,0c-0.3,0 -0.5,0.3 -0.5,0.6c0,0 0,17.9 0,21.3c0,0.6 0.4,0.8 0.9,0.8c0,0 2.6,0 5.5,0c0.6,0 0.8,-0.3 0.8,-0.8c-0.1,-1.1 -0.1,-5.6 -0.1,-6.5z" class="st0"/>
     </g>
    </g>
    <path id="svg_9" d="m124.250003,85.349998l-6.1,0c-0.3,0 -0.5,0.2 -0.5,0.5l0,15.8c0,0 -1.6,1.1 -3.8,1.1c-2.2,0 -2.8,-1 -2.8,-3.2c0,-2.2 0,-13.8 0,-13.8c0,-0.3 -0.2,-0.5 -0.5,-0.5l-6.2,0c-0.3,0 -0.5,0.2 -0.5,0.5c0,0 0,8.4 0,14.8c0,6.4 3.6,8 8.5,8c4,0 7.3,-2.2 7.3,-2.2s0.2,1.2 0.2,1.3c0.1,0.1 0.3,0.3 0.4,0.3l3.9,0c0.3,0 0.5,-0.2 0.5,-0.5l0,-21.6c0.1,-0.3 -0.2,-0.5 -0.4,-0.5z" class="st0"/>
    <path id="svg_10" d="m140.850003,84.649998c-3.5,0 -5.8,1.5 -5.8,1.5l0,-10.9c0,-0.3 -0.2,-0.5 -0.5,-0.5l-6.2,0c-0.3,0 -0.5,0.2 -0.5,0.5l0,32.2c0,0.3 0.2,0.5 0.5,0.5c0,0 4.3,0 4.3,0c0.2,0 0.3,-0.1 0.4,-0.3c0.1,-0.2 0.3,-1.5 0.3,-1.5s2.5,2.4 7.3,2.4c5.6,0 8.8,-2.8 8.8,-12.8c0,-9.8 -5.1,-11.1 -8.6,-11.1zm-2.4,18.1c-2.1,-0.1 -3.6,-1 -3.6,-1l0,-10.2c0,0 1.4,-0.9 3.2,-1c2.2,-0.2 4.3,0.5 4.3,5.7c0,5.5 -0.9,6.6 -3.9,6.5z" class="st0"/>
    <path id="svg_11" d="m73.350003,85.349998l-4.6,0c0,0 0,-6.1 0,-6.1c0,-0.2 -0.1,-0.3 -0.4,-0.3l-6.3,0c-0.2,0 -0.4,0.1 -0.4,0.3l0,6.3c0,0 -3.2,0.8 -3.4,0.8c-0.2,0.1 -0.4,0.3 -0.4,0.5l0,4c0,0.3 0.2,0.5 0.5,0.5l3.2,0c0,0 0,4.1 0,9.5c0,7.1 5,7.8 8.3,7.8c1.5,0 3.4,-0.5 3.7,-0.6c0.2,-0.1 0.3,-0.3 0.3,-0.5l0,-4.4c0,-0.3 -0.2,-0.5 -0.5,-0.5c-0.3,0 -1,0.1 -1.7,0.1c-2.3,0 -3,-1.1 -3,-2.4c0,-1.4 0,-9 0,-9l4.6,0c0.3,0 0.5,-0.2 0.5,-0.5l0,-5c0.1,-0.3 -0.1,-0.5 -0.4,-0.5z" class="st0"/>
   </g>
   <g id="svg_12">
    <g id="svg_13">
     <g id="svg_14">
      <g id="svg_15">
       <defs transform="translate(9.570380210876465,0) translate(0,7.640567779541016) translate(0.5006765127182007,0.3337843418121338) translate(0,-0.5006765127182007) translate(-0.3337843418121338,1.0013530254364014) translate(4.0054121017456055,2.6702747344970703) translate(-68.59268188476562,-21.19530487060547) ">
        <rect height="48.4" width="49.2" y="24.3" x="114.7" id="SVGID_1_"/>
       </defs>
       <clipPath transform="translate(9.570380210876465,0) translate(0,7.640567779541016) translate(0.5006765127182007,0.3337843418121338) translate(0,-0.5006765127182007) translate(-0.3337843418121338,1.0013530254364014) translate(4.0054121017456055,2.6702747344970703) translate(-68.59268188476562,-21.19530487060547) " id="SVGID_2_">
        <use id="svg_16" xlink:href="#SVGID_1_"/>
       </clipPath>
       <g class="st1" id="XMLID_2_">
        <g id="svg_17">
         <g id="svg_18">
          <defs transform="translate(9.570380210876465,0) translate(0,7.640567779541016) translate(0.5006765127182007,0.3337843418121338) translate(0,-0.5006765127182007) translate(-0.3337843418121338,1.0013530254364014) translate(4.0054121017456055,2.6702747344970703) translate(-68.59268188476562,-21.19530487060547) ">
           <rect height="48.4" width="49.2" y="24.3" x="114.7" id="SVGID_3_"/>
          </defs>
          <clipPath transform="translate(9.570380210876465,0) translate(0,7.640567779541016) translate(0.5006765127182007,0.3337843418121338) translate(0,-0.5006765127182007) translate(-0.3337843418121338,1.0013530254364014) translate(4.0054121017456055,2.6702747344970703) translate(-68.59268188476562,-21.19530487060547) " id="SVGID_4_">
           <use id="svg_19" xlink:href="#SVGID_3_"/>
          </clipPath>
          <path d="m106.050003,38.949998c0,-12 -9.7,-21.6 -21.6,-21.6c-12,0 -21.6,9.7 -21.6,21.6c0,9.5 6.1,17.6 14.6,20.4c0.5,-0.4 1.1,-0.8 1.1,-1.6c0,-1.2 0,-4.2 0,-4.2s-1,0.2 -2.3,0.2c-3.4,0 -4.5,-2.2 -5,-3.4c-0.7,-1.6 -1.5,-2.3 -2.4,-2.9c-0.6,-0.3 -0.7,-0.8 0,-0.9c3,-0.6 3.8,3.4 5.8,4c1.4,0.5 3.3,0.2 4.2,-0.3c0.1,-1.2 1,-2.2 1.7,-2.8c-5.1,-0.5 -8.1,-2.2 -9.6,-5l-0.2,-0.3l-0.4,-0.9l-0.1,-0.3c-0.5,-1.4 -0.7,-3.1 -0.7,-4.9c0,-3.3 1,-4.5 2.4,-6.2c-1,-3.7 0.4,-6.3 0.4,-6.3s2.2,-0.5 6.3,2.5c2.3,-1 8.2,-1 11.1,-0.2c1.7,-1.2 4.9,-2.8 6.2,-2.3c0.3,0.6 1.1,2.2 0.5,5.8c0.5,0.8 2.7,2.4 2.7,7.2c0,1.7 -0.2,3.2 -0.6,4.5l-0.2,0.6c0,0 -0.1,0.3 -0.2,0.6l-0.1,0.3c-1.5,3.3 -4.6,4.5 -9.6,5c1.6,1 2.1,2.3 2.1,5.7c0,3.4 0,3.9 0,4.7c0,0.7 0.6,1.2 1.1,1.6c8.3,-3 14.4,-11.1 14.4,-20.6" class="st2" id="XMLID_9_"/>
         </g>
        </g>
       </g>
      </g>
     </g>
    </g>
   </g>
  </g>
 </g>
</svg>